<?xml version="1.0" standalone="no"?>
<!DOCTYPE svg PUBLIC "-//W3C//DTD SVG 20010904//EN"
 "http://www.w3.org/TR/2001/REC-SVG-20010904/DTD/svg10.dtd">
<svg version="1.0" xmlns="http://www.w3.org/2000/svg"
 width="1000.000000pt" height="1000.000000pt" viewBox="0 0 1000.000000 1000.000000"
 preserveAspectRatio="xMidYMid meet">
<metadata>
Created by potrace 1.14, written by Peter Selinger 2001-2017
</metadata>
<g transform="translate(0.000000,1000.000000) scale(0.100000,-0.100000)"
fill="#000000" stroke="none">
<path d="M4650 9274 c0 -4 31 -66 70 -139 l70 -132 -183 -7 c-191 -7 -235 -11
-462 -46 -313 -48 -586 -121 -885 -238 -105 -41 -453 -206 -525 -248 -325
-194 -501 -323 -765 -560 -134 -120 -229 -220 -369 -384 -39 -47 -80 -94 -89
-105 -29 -33 -175 -235 -224 -310 -135 -207 -308 -538 -383 -735 -128 -333
-216 -669 -249 -950 -9 -74 -22 -171 -29 -215 -16 -108 -16 -660 1 -780 6 -49
21 -160 32 -245 29 -217 122 -591 197 -785 97 -253 135 -339 242 -537 115
-213 139 -253 246 -407 169 -243 302 -401 504 -601 114 -112 154 -148 280
-256 65 -56 217 -171 262 -199 24 -16 46 -31 49 -35 5 -7 159 -105 257 -163
82 -49 302 -162 378 -194 33 -14 83 -35 110 -47 28 -13 79 -33 115 -45 36 -13
79 -29 95 -36 17 -7 71 -25 120 -40 50 -15 115 -35 146 -46 31 -10 110 -30
175 -43 66 -14 148 -32 184 -40 130 -29 516 -65 696 -66 l70 0 22 43 c12 23
40 74 63 112 42 70 118 206 169 300 15 28 54 100 88 160 33 61 71 130 84 155
13 25 26 47 29 50 3 3 24 39 46 80 51 94 182 331 238 430 97 173 133 238 167
300 19 36 57 103 84 150 103 182 174 316 174 327 0 7 -18 22 -39 33 -46 23
-111 97 -127 143 l-11 32 -1516 3 c-970 1 -1525 -1 -1541 -8 -30 -11 -35 -48
-12 -90 7 -14 27 -50 44 -80 16 -30 71 -129 120 -220 76 -140 175 -322 372
-685 163 -300 248 -460 245 -463 -13 -14 -352 144 -510 236 -504 296 -917 684
-1226 1152 -187 282 -320 554 -424 866 -130 387 -180 707 -180 1154 0 354 24
568 95 855 102 414 253 765 486 1132 47 73 187 265 232 318 221 258 410 441
617 596 136 103 165 122 354 242 135 85 482 247 636 297 39 12 84 28 100 36
17 7 84 27 150 44 66 17 143 37 170 45 49 14 209 39 430 69 129 18 450 32 490
22 l28 -7 -7 -72 c-8 -90 -20 -133 -58 -222 -119 -273 -392 -503 -1013 -849
-269 -150 -390 -223 -515 -307 -134 -91 -135 -92 -120 -119 9 -17 12 -86 11
-253 l-2 -230 30 6 c17 4 81 11 143 18 62 6 116 13 119 15 12 7 77 -17 94 -36
17 -19 18 -19 64 5 99 51 209 42 306 -26 l57 -40 34 22 c19 11 37 32 40 45 4
14 3 81 -1 149 -6 115 -9 125 -27 125 -27 0 -74 26 -82 45 -3 9 -6 37 -6 61 0
52 23 80 72 88 269 46 298 46 332 5 25 -30 26 -35 26 -170 0 -76 2 -139 5
-139 30 0 389 211 531 313 341 244 587 536 673 801 46 140 55 199 55 351 -1
338 -135 655 -379 900 -112 112 -238 196 -376 252 -119 49 -289 88 -289 67z"/>
<path d="M5881 8388 c45 -179 61 -307 56 -448 -12 -324 -134 -589 -386 -840
-125 -124 -245 -216 -486 -369 -55 -35 -116 -74 -135 -86 -31 -20 -172 -103
-271 -159 l-34 -19 49 -13 c60 -16 123 -58 153 -103 45 -67 53 -119 54 -360 1
-246 10 -330 22 -228 17 134 98 217 310 317 l87 41 0 45 c0 61 -14 84 -50 84
-24 0 -31 -5 -36 -27 -10 -47 -34 -105 -56 -136 -57 -79 -189 -72 -233 12 -69
135 109 316 349 353 91 14 205 0 245 -30 75 -55 91 -121 91 -367 0 -102 3
-185 6 -185 13 0 226 127 321 192 304 207 494 448 601 763 119 350 85 759 -91
1085 -99 182 -258 364 -427 488 -67 50 -92 62 -121 62 l-37 0 19 -72z"/>
<path d="M7068 8293 c-8 -10 -59 -81 -113 -158 -54 -77 -116 -164 -138 -194
-39 -53 -40 -55 -21 -69 105 -76 215 -152 223 -152 10 0 56 59 50 64 -16 15
-101 76 -131 94 l-37 23 47 64 46 64 36 -22 c19 -12 55 -37 80 -55 l44 -34 28
31 c16 18 26 36 24 40 -3 4 -24 21 -48 37 -103 69 -108 74 -97 98 7 11 20 31
31 43 23 25 25 24 123 -49 28 -21 55 -38 60 -38 15 0 48 58 40 70 -3 6 -33 29
-67 53 -33 23 -81 57 -106 75 -54 37 -54 37 -74 15z"/>
<path d="M7185 7804 c-55 -64 -116 -134 -135 -157 -19 -22 -47 -53 -62 -69
-16 -16 -28 -33 -28 -37 0 -4 14 -18 32 -31 l32 -24 66 72 65 72 20 -43 c24
-50 71 -77 133 -77 119 0 211 131 170 244 -15 43 -76 95 -111 96 -10 0 -15 4
-12 10 7 11 -43 59 -60 59 -5 0 -55 -52 -110 -115z m190 -49 c37 -37 34 -83
-10 -125 -42 -41 -84 -44 -120 -10 -41 39 -29 110 23 143 39 24 79 21 107 -8z"/>
<path d="M7552 7589 c-40 -26 -48 -57 -33 -121 17 -75 15 -90 -11 -86 -18 2
-24 10 -26 39 -3 31 -7 37 -38 47 -33 10 -36 9 -45 -14 -13 -35 -11 -51 8 -91
21 -44 67 -73 117 -73 30 0 45 7 72 34 38 38 40 51 18 125 -15 53 -13 88 6 76
5 -3 10 -14 10 -24 0 -23 17 -37 52 -46 23 -6 27 -3 33 23 13 63 -43 132 -107
132 -13 0 -38 -10 -56 -21z"/>
<path d="M7897 7522 c-20 -22 -22 -63 -5 -80 29 -29 98 -1 98 40 0 19 -41 58
-62 58 -8 0 -22 -8 -31 -18z"/>
<path d="M6790 7486 c0 -3 9 -42 20 -88 26 -109 36 -308 21 -421 -15 -113 -61
-270 -106 -366 -149 -314 -449 -611 -870 -862 -101 -60 -112 -70 -140 -121
-38 -72 -58 -93 -109 -118 -51 -24 -87 -25 -132 -4 -34 16 -35 16 -107 -22
-39 -20 -115 -63 -167 -95 l-95 -57 -3 -146 c-1 -80 1 -146 6 -146 4 0 25 9
46 20 152 77 311 25 377 -122 22 -50 24 -66 27 -295 2 -134 6 -243 8 -243 2 0
31 21 64 46 l60 46 -2 186 -3 187 -40 13 c-60 19 -88 56 -82 106 9 67 36 80
185 94 178 17 195 16 219 -10 19 -21 21 -37 25 -190 1 -91 7 -170 11 -174 5
-5 23 0 40 10 66 39 277 156 417 231 250 135 393 233 537 369 134 126 284 330
329 446 9 25 21 50 25 56 14 18 38 91 71 214 26 99 31 138 35 280 6 186 -3
262 -48 420 -58 207 -170 400 -314 545 -101 102 -305 243 -305 211z m-889
-2056 c56 -29 79 -71 79 -145 0 -78 -24 -119 -87 -147 -33 -15 -56 -18 -86
-14 -87 14 -130 67 -130 161 0 71 25 119 76 144 53 26 97 27 148 1z"/>
<path d="M5788 5384 c-36 -19 -48 -43 -48 -94 0 -52 13 -76 50 -95 74 -38 150
9 150 95 0 86 -78 134 -152 94z"/>
<path d="M8005 7353 c-372 -283 -359 -270 -308 -315 17 -15 20 -14 49 6 39 26
207 153 262 198 58 48 135 108 152 118 12 7 9 14 -15 40 -16 16 -31 30 -34 30
-3 0 -51 -35 -106 -77z"/>
<path d="M7703 7346 c-48 -41 -104 -87 -123 -103 l-34 -30 24 -31 c14 -17 29
-31 33 -31 8 -1 123 94 226 186 l36 31 -24 26 c-14 14 -30 26 -37 26 -7 0 -53
-33 -101 -74z"/>
<path d="M7905 7071 c-104 -63 -124 -200 -41 -282 61 -61 129 -74 202 -38 65
31 98 81 102 154 3 54 0 65 -27 106 -18 26 -47 54 -65 63 -47 22 -133 21 -171
-3z m135 -76 c17 -9 33 -28 39 -48 21 -61 -17 -115 -87 -124 -34 -5 -45 -1
-66 20 -51 51 -41 106 27 147 38 24 49 24 87 5z"/>
<path d="M3035 6868 c-165 -27 -162 -26 -169 -44 -11 -28 12 -54 48 -54 21 0
40 -8 52 -21 18 -20 19 -44 19 -558 l0 -536 -38 -3 c-36 -3 -38 -5 -35 -35 l3
-32 195 0 195 0 0 30 c0 28 -3 30 -45 35 -35 4 -47 10 -57 30 -10 19 -13 159
-13 607 0 544 -1 583 -17 591 -11 6 -63 2 -138 -10z"/>
<path d="M4205 6865 c-77 -13 -141 -24 -143 -24 -2 -1 -2 -16 0 -33 3 -30 6
-33 41 -36 26 -2 42 -10 53 -27 25 -39 33 -189 34 -635 0 -454 0 -455 -58
-462 -23 -3 -27 -8 -27 -33 l0 -30 190 0 190 0 0 30 c0 27 -3 30 -40 35 -62 8
-65 21 -65 283 0 260 6 288 64 312 20 8 60 15 89 15 93 0 92 6 95 -326 3 -277
2 -284 -17 -284 -32 0 -51 -11 -51 -30 0 -37 22 -41 206 -38 l179 3 0 30 c0
27 -3 30 -40 35 -30 4 -43 11 -52 31 -8 16 -15 122 -21 305 -10 318 -14 336
-94 390 -37 25 -53 29 -108 29 -55 0 -76 -5 -130 -34 -36 -18 -77 -45 -92 -59
l-28 -26 0 290 c0 278 -4 318 -29 313 -4 -1 -69 -12 -146 -24z"/>
<path d="M2368 6775 c-55 -29 -68 -46 -98 -135 -12 -36 -26 -69 -30 -75 -4 -5
-20 -46 -35 -90 -15 -44 -34 -93 -41 -110 -15 -33 -65 -164 -120 -315 -19 -52
-43 -113 -53 -135 -10 -22 -26 -65 -36 -95 -24 -74 -51 -134 -67 -147 -7 -6
-26 -13 -43 -15 -27 -3 -30 -7 -30 -38 l0 -35 172 -3 173 -2 6 25 c9 35 -11
55 -55 55 -20 0 -47 3 -60 7 -21 5 -22 10 -17 47 8 49 53 206 72 253 l14 33
163 -2 162 -3 47 -140 c26 -77 47 -152 47 -167 1 -25 -3 -27 -41 -30 -42 -3
-43 -4 -43 -38 l0 -35 210 0 210 0 0 35 c0 31 -3 36 -30 40 -47 8 -62 21 -84
73 -38 88 -266 784 -296 901 -13 53 -13 62 2 94 32 66 -17 90 -99 47z m-7
-510 c17 -60 34 -114 38 -120 5 -5 11 -20 14 -32 5 -23 5 -23 -128 -23 l-133
0 10 38 c5 20 14 42 18 47 4 6 20 48 35 95 15 47 39 111 54 142 l25 57 18 -47
c10 -26 32 -96 49 -157z"/>
<path d="M8120 6694 c-69 -36 -129 -70 -134 -74 -9 -9 10 -66 26 -76 4 -3 46
14 91 39 114 60 131 64 162 33 46 -46 36 -58 -100 -131 -49 -26 -92 -49 -94
-51 -5 -5 20 -63 30 -70 16 -10 217 96 244 127 42 51 28 151 -25 179 -11 6
-18 15 -15 20 9 15 -27 70 -45 69 -8 0 -71 -30 -140 -65z"/>
<path d="M2837 6588 c-73 -83 -194 -241 -208 -272 -8 -17 9 -78 79 -286 118
-350 102 -316 157 -323 26 -4 51 -4 56 -1 10 6 13 913 3 938 -3 9 -10 16 -14
16 -5 0 -37 -33 -73 -72z"/>
<path d="M3440 6395 c-41 -8 -92 -14 -112 -14 -84 -2 -90 -69 -7 -80 33 -5 46
-12 56 -31 10 -19 12 -140 10 -540 l-2 -515 -35 -5 c-32 -5 -35 -8 -35 -40 l0
-35 199 0 c178 0 200 2 210 18 19 29 -4 51 -60 57 -69 7 -74 20 -74 213 0 86
2 157 4 157 2 0 21 -7 42 -16 51 -21 149 -14 227 17 159 62 259 276 229 492
-16 121 -38 181 -85 238 -86 105 -180 125 -302 64 -39 -19 -80 -42 -92 -51
-23 -16 -23 -16 -23 19 0 26 -6 40 -22 51 -26 18 -28 18 -128 1z m322 -135
c88 -25 128 -119 128 -304 0 -161 -15 -216 -75 -275 -44 -45 -47 -46 -108 -46
-43 0 -71 6 -90 18 l-27 17 0 269 c0 301 -3 288 77 317 47 16 49 16 95 4z"/>
<path d="M3672 6195 c-40 -18 -44 -26 -40 -108 l3 -67 73 68 c39 37 72 72 72
78 0 32 -62 49 -108 29z"/>
<path d="M3774 5813 c-51 -62 -94 -120 -94 -127 0 -3 11 -6 24 -6 48 0 103 68
121 148 9 45 -5 40 -51 -15z"/>
<path d="M5244 6396 c-137 -39 -223 -100 -253 -182 -19 -50 -20 -58 -6 -83 39
-76 137 -42 168 57 9 26 18 59 21 73 6 30 42 49 92 49 71 0 93 -32 97 -145 l2
-70 -133 -66 c-195 -97 -265 -173 -266 -289 -1 -77 31 -143 84 -170 74 -38
159 -18 274 64 l65 46 24 -35 c63 -93 147 -112 216 -50 54 49 58 73 18 90 -71
30 -71 29 -78 314 -7 295 -15 339 -65 377 -30 23 -46 27 -122 30 -56 3 -105
-1 -138 -10z m126 -497 c0 -121 -16 -157 -80 -183 -57 -23 -85 -20 -109 10
-27 34 -26 57 3 120 30 65 130 151 179 154 4 0 7 -46 7 -101z"/>
<path d="M5273 5882 c-29 -23 -63 -82 -63 -109 0 -31 30 -30 69 3 31 26 39 64
23 106 -7 16 -8 16 -29 0z"/>
<path d="M8672 6244 c-18 -7 -32 -18 -32 -23 0 -6 13 -47 30 -92 16 -46 28
-84 26 -87 -5 -5 -26 -1 -276 52 -169 36 -210 42 -210 29 0 -10 50 -171 86
-277 l26 -78 31 6 c17 4 36 11 41 16 6 6 -3 46 -23 109 -18 55 -31 104 -29
109 3 9 195 -27 368 -67 47 -11 91 -21 98 -21 19 0 14 33 -16 117 -16 43 -37
108 -47 145 -10 37 -23 69 -29 71 -7 3 -26 -1 -44 -9z"/>
<path d="M3244 6236 c-2 -6 -3 -128 -2 -271 l3 -260 25 -1 c14 -1 32 -3 40 -5
13 -3 15 29 18 242 1 138 -2 258 -7 272 -7 17 -19 26 -41 29 -18 3 -34 0 -36
-6z"/>
<path d="M4483 6199 c-18 -5 -37 -18 -43 -29 -12 -22 -10 -460 3 -460 4 0 24
-7 44 -15 32 -14 39 -14 60 0 l23 15 0 235 c0 277 -1 279 -87 254z"/>
<path d="M2376 5818 c-67 -186 -106 -350 -126 -529 -16 -137 -8 -443 15 -564
34 -183 115 -391 223 -570 48 -80 151 -217 168 -222 6 -2 14 13 18 34 14 82
72 209 131 287 75 100 159 168 253 203 l73 28 -8 80 c-14 143 -8 381 11 490
19 101 83 307 126 402 13 29 21 55 18 58 -3 3 -193 5 -422 5 l-417 0 -25 25
c-34 34 -34 106 1 140 13 14 32 25 41 25 9 0 14 6 11 13 -2 6 -15 44 -27 82
-13 39 -26 74 -30 78 -4 5 -19 -25 -34 -65z"/>
<path d="M8477 5760 c-40 -12 -94 -56 -112 -90 -33 -64 -8 -160 55 -214 40
-33 68 -34 80 0 16 40 12 51 -21 64 -30 13 -49 43 -49 79 0 18 34 61 49 61 4
0 18 -42 30 -92 34 -140 29 -131 63 -124 76 15 138 87 138 158 0 18 -11 53
-23 77 -38 74 -124 107 -210 81z m123 -100 c23 -12 33 -52 20 -84 -15 -39 -27
-31 -39 24 -16 76 -16 79 19 60z"/>
<path d="M4091 5734 c-13 -30 -9 -39 14 -31 15 7 22 57 7 57 -5 0 -14 -12 -21
-26z"/>
<path d="M3996 5601 c-31 -32 -142 -94 -191 -105 -16 -4 -63 -7 -104 -7 l-74
0 7 -76 c3 -42 6 -93 6 -115 0 -38 0 -38 40 -38 58 0 90 -34 90 -95 0 -35 -6
-52 -25 -70 -24 -25 -27 -25 -193 -25 l-169 0 -18 -77 c-22 -93 -34 -438 -16
-471 7 -13 33 -25 78 -36 150 -38 250 -96 321 -189 35 -45 87 -143 105 -198 5
-14 13 -15 49 -9 24 5 95 12 160 15 l116 8 27 -27 c15 -15 30 -25 33 -22 2 3
1 25 -4 48 l-9 43 -130 2 c-71 1 -142 4 -157 7 -37 7 -63 60 -54 109 7 38 46
77 76 77 10 0 20 6 22 13 2 6 1 208 -2 447 l-5 434 -34 7 c-81 17 -114 66 -91
135 21 64 43 68 364 59 351 -9 393 -18 499 -114 36 -33 38 -33 57 -16 25 22
17 35 -21 35 -19 0 -39 10 -55 26 -22 21 -25 32 -22 67 3 23 6 49 9 57 3 12
-10 16 -67 20 -39 3 -77 10 -85 17 -11 9 -19 8 -33 -3 -16 -11 -62 -14 -215
-14 -223 0 -238 5 -250 74 l-6 37 -29 -30z"/>
<path d="M4930 5514 c-29 -5 -135 -23 -168 -30 -19 -4 -23 -10 -20 -37 3 -30
6 -32 46 -35 36 -3 45 -8 54 -30 8 -18 13 -196 16 -554 l4 -527 -28 -6 c-63
-15 -65 -16 -62 -43 l3 -27 192 -3 c186 -2 192 -2 198 18 8 26 -11 50 -39 50
-63 0 -75 51 -75 325 -1 188 6 221 53 253 71 48 137 48 183 0 l28 -29 0 -266
c0 -288 4 -264 -52 -292 -10 -4 -18 -19 -18 -32 l0 -24 188 -3 c167 -2 188 -1
194 14 9 25 -10 49 -43 52 -57 7 -64 23 -65 151 0 64 -4 193 -8 286 -6 144
-11 176 -28 210 -43 81 -114 121 -197 110 -52 -7 -99 -27 -184 -81 l-53 -34 1
282 c0 156 0 289 0 296 0 12 -59 15 -120 6z"/>
<path d="M8690 5412 c-14 -2 -30 -11 -37 -19 -9 -11 -47 -20 -125 -30 -62 -8
-116 -18 -120 -22 -4 -3 -5 -24 -1 -45 l6 -38 55 6 c30 4 88 9 128 13 70 6 74
5 74 -14 0 -25 15 -31 55 -23 25 5 30 10 27 32 -2 24 1 26 53 33 30 3 57 11
60 16 3 5 3 25 -1 44 l-6 36 -59 -7 c-38 -4 -59 -3 -59 4 0 13 -19 19 -50 14z"/>
<path d="M3929 5394 c-20 -6 -32 -45 -18 -59 5 -5 36 -17 67 -25 l57 -15 9
-472 c5 -260 6 -483 2 -497 -5 -22 -12 -26 -45 -26 -41 0 -51 -11 -51 -56 0
-13 5 -24 10 -24 6 -1 100 -1 210 -1 110 0 204 0 209 1 14 0 21 42 10 62 -7
13 -21 18 -54 18 -75 0 -75 2 -75 246 0 118 3 214 6 214 3 0 14 -5 26 -11 50
-27 218 -4 308 41 83 43 160 164 168 266 5 56 -23 155 -56 206 -30 46 -107 97
-169 112 -57 14 -577 31 -614 20z m462 -105 c88 -27 146 -106 156 -213 13
-141 -68 -247 -190 -248 -104 -1 -97 -19 -97 236 0 122 3 226 7 229 10 11 82
8 124 -4z"/>
<path d="M4310 5081 c0 -88 -3 -166 -6 -174 -8 -21 27 -38 59 -29 30 8 127
136 127 167 0 35 -21 97 -43 128 -24 32 -85 67 -117 67 -19 0 -20 -6 -20 -159z"/>
<path d="M8515 5162 c-88 -48 -117 -143 -65 -214 18 -25 19 -28 4 -28 -14 0
-16 -7 -11 -36 3 -20 8 -39 11 -41 3 -3 77 -2 165 2 l161 7 0 37 c0 20 -4 41
-9 47 -6 5 -6 24 1 49 40 149 -115 255 -257 177z m155 -88 c27 -23 31 -32 28
-68 -3 -36 -7 -43 -46 -64 -37 -21 -46 -22 -77 -12 -106 35 -77 166 37 169 15
1 40 -10 58 -25z"/>
<path d="M5750 5029 c-100 -11 -122 -22 -118 -56 3 -23 10 -29 52 -39 27 -7
53 -19 57 -26 5 -7 8 -148 6 -313 l-2 -300 -32 -3 c-38 -4 -57 -24 -48 -52 6
-19 14 -20 205 -20 191 0 199 1 205 20 9 30 -12 50 -51 50 -21 0 -42 8 -54 20
-19 19 -20 33 -20 359 0 187 -3 346 -6 355 -7 18 -65 20 -194 5z"/>
<path d="M4747 4857 c-46 -65 -86 -97 -170 -139 -44 -22 -52 -31 -78 -94 -51
-118 -68 -212 -66 -363 2 -143 2 -143 57 -155 14 -3 48 -23 77 -45 l52 -40 59
39 c125 84 266 75 359 -22 35 -36 73 -132 73 -184 0 -43 17 -53 25 -15 3 16
20 51 37 77 38 59 138 232 138 238 0 5 -88 17 -115 15 -11 0 -113 -3 -228 -5
l-207 -5 -25 25 c-48 48 -24 144 40 160 l25 6 0 285 c0 157 -2 285 -4 285 -2
0 -24 -28 -49 -63z"/>
<path d="M5163 4839 c-60 -17 -63 -31 -63 -264 0 -221 3 -235 45 -235 12 0 26
-5 32 -11 8 -8 20 -8 43 2 l31 14 -3 238 c-3 223 -4 240 -22 253 -22 16 -19
16 -63 3z"/>
<path d="M8545 4511 c-79 -37 -131 -105 -147 -188 -11 -58 -6 -135 11 -161 7
-12 111 -30 111 -19 0 2 -9 24 -20 48 -72 159 88 315 246 238 78 -37 124 -125
104 -200 -6 -20 -23 -54 -40 -77 l-30 -41 41 -11 c54 -15 66 -9 92 47 30 66
30 181 0 238 -72 137 -231 192 -368 126z"/>
<path d="M3190 4441 c-98 -22 -133 -36 -200 -83 -115 -81 -216 -235 -245 -373
-27 -127 -17 -332 22 -450 33 -100 133 -219 222 -264 106 -53 162 -66 292 -66
76 0 135 5 150 12 13 6 50 23 81 37 40 17 81 48 133 100 161 162 225 391 180
650 -32 184 -145 337 -296 400 -35 15 -231 57 -253 55 -6 -1 -45 -9 -86 -18z
m168 -105 c77 -40 99 -59 140 -117 56 -77 66 -101 98 -219 25 -91 28 -123 28
-240 0 -110 -4 -147 -21 -202 -46 -141 -98 -209 -192 -251 -69 -30 -173 -21
-240 23 -98 62 -173 177 -207 314 -21 86 -30 315 -15 401 22 134 95 244 191
292 64 32 154 31 218 -1z"/>
<path d="M3122 4260 c-47 -33 -79 -81 -108 -155 -16 -42 -19 -77 -19 -220 0
-186 12 -260 48 -292 56 -49 347 -203 384 -203 31 0 80 71 105 153 l20 68 -54
72 c-48 63 -81 114 -163 247 -30 50 -123 263 -137 315 -7 25 -17 45 -24 45 -6
0 -30 -13 -52 -30z"/>
<path d="M3460 4148 c0 -4 8 -23 17 -43 17 -36 35 -48 27 -17 -5 19 -43 71
-44 60z"/>
<path d="M8362 4053 c-6 -21 -8 -41 -4 -45 4 -4 50 -16 102 -28 52 -11 100
-26 108 -32 26 -22 33 -46 20 -74 -12 -25 -15 -26 -68 -21 -30 2 -86 13 -124
22 -57 14 -70 15 -77 4 -13 -21 -11 -69 4 -73 85 -26 208 -56 230 -56 71 0
121 59 115 136 -2 35 0 43 12 40 82 -23 222 -48 229 -40 5 5 12 23 15 40 l7
32 -78 20 c-43 12 -109 28 -148 36 -38 8 -123 29 -188 45 -65 17 -124 31 -131
31 -7 0 -18 -17 -24 -37z"/>
<path d="M4368 4061 c-38 -13 -140 -76 -164 -102 l-19 -21 -5 58 c-5 59 -5 59
-40 62 -19 2 -64 -1 -100 -7 -36 -5 -89 -13 -117 -17 -52 -6 -53 -6 -53 -40 0
-33 1 -34 38 -34 69 0 69 0 76 -327 3 -160 3 -298 0 -307 -3 -9 -18 -16 -33
-16 -37 0 -53 -14 -49 -41 l3 -24 181 -3 c156 -2 183 0 195 14 18 22 0 48 -39
52 -56 6 -57 12 -57 283 l0 249 37 36 c31 32 45 38 92 42 49 4 57 2 79 -22 14
-14 27 -40 31 -57 3 -18 6 -143 6 -280 l0 -248 -31 -3 c-35 -3 -56 -26 -46
-52 6 -14 29 -16 186 -16 172 0 180 1 186 20 9 28 -11 50 -46 50 -22 0 -32 6
-39 26 -15 39 -13 506 3 526 24 31 82 58 125 58 52 0 88 -30 97 -81 3 -19 5
-144 3 -279 l-3 -245 -29 -5 c-33 -6 -52 -30 -43 -54 6 -14 30 -16 196 -16
181 0 189 1 194 20 7 27 -18 50 -53 50 -54 0 -57 18 -64 318 -7 340 -15 367
-131 422 -22 11 -56 20 -75 20 -43 0 -147 -48 -205 -95 l-43 -36 -28 37 c-54
70 -147 107 -216 85z"/>
<path d="M5450 4061 c-113 -39 -164 -77 -214 -160 -51 -83 -69 -164 -69 -301
0 -145 20 -204 99 -290 75 -80 159 -115 266 -108 40 3 82 9 93 15 11 6 50 24
88 42 37 17 67 35 67 39 0 5 11 14 25 20 16 8 25 20 25 35 0 44 -44 63 -71 30
-45 -54 -181 -73 -256 -35 -72 37 -133 158 -133 262 0 35 1 36 103 65 263 74
332 96 344 108 12 12 9 24 -23 83 -47 88 -96 139 -161 170 -57 27 -143 39
-183 25z m75 -97 c13 -8 38 -38 56 -65 37 -57 34 -90 -8 -108 -41 -16 -205
-62 -209 -58 -10 10 22 148 43 185 37 63 71 77 118 46z"/>
<path d="M6145 4061 c-62 -16 -143 -64 -177 -105 -57 -68 -71 -103 -76 -194
-5 -93 9 -160 42 -195 11 -12 33 -36 48 -53 l28 -30 -42 -59 c-57 -83 -63
-137 -19 -188 l32 -36 -29 -15 c-43 -22 -101 -93 -113 -139 -11 -43 -4 -110
15 -130 6 -6 19 -24 28 -38 9 -14 45 -40 80 -58 198 -98 531 -27 614 132 25
47 34 122 23 184 -26 141 -90 176 -377 208 -73 8 -137 17 -142 20 -16 10 -11
61 6 76 11 9 37 13 78 11 136 -7 267 68 317 181 27 64 31 190 6 249 l-15 36
33 6 c61 12 95 85 61 132 -14 19 -15 18 -41 -6 -23 -21 -35 -25 -86 -23 -32 1
-82 8 -111 17 -69 20 -146 27 -183 17z m89 -112 c41 -32 66 -92 76 -182 11
-92 6 -135 -21 -189 -23 -44 -62 -57 -107 -34 -68 35 -106 128 -106 261 -1 66
3 86 22 117 13 20 31 39 40 41 39 10 71 6 96 -14z m73 -822 c111 -17 137 -37
141 -106 3 -49 1 -55 -35 -91 -48 -47 -103 -64 -204 -64 -105 1 -164 30 -198
97 -30 61 -23 107 25 155 l35 35 77 -6 c42 -4 114 -12 159 -20z"/>
<path d="M6920 4064 c-30 -6 -121 -37 -172 -58 -20 -9 -57 -35 -82 -58 -76
-72 -87 -173 -21 -198 58 -22 133 49 143 137 6 51 27 73 81 80 73 10 112 -35
124 -142 8 -73 14 -68 -186 -166 -132 -64 -183 -114 -211 -207 -18 -61 -18
-62 3 -123 22 -64 45 -99 67 -99 7 0 14 -5 16 -11 2 -6 24 -13 49 -16 55 -6
148 33 217 91 24 20 50 36 57 36 7 0 23 -16 35 -35 25 -40 67 -73 109 -85 56
-16 141 47 141 105 0 9 -15 22 -33 30 -62 26 -61 22 -67 324 -6 309 -11 332
-77 371 -34 20 -142 33 -193 24z m73 -421 c8 -14 -12 -202 -23 -223 -16 -31
-70 -60 -109 -60 -51 0 -71 23 -71 84 0 64 25 106 82 142 24 15 45 30 48 33
19 22 65 37 73 24z"/>
<path d="M3889 3848 c0 -29 -6 -90 -13 -136 -11 -79 -11 -83 9 -102 12 -11 24
-20 28 -20 4 0 6 68 5 152 -2 110 -6 152 -15 156 -9 2 -13 -12 -14 -50z"/>
<path d="M4256 3837 l-26 -26 0 -203 c0 -112 4 -208 8 -214 13 -21 74 -46 97
-40 22 6 23 11 30 149 l7 144 -37 99 c-20 54 -41 103 -45 108 -5 5 -20 -3 -34
-17z"/>
<path d="M4697 3839 l-28 -21 7 -102 6 -101 56 -57 c31 -32 60 -58 64 -58 10
0 9 295 -1 330 -9 34 -64 39 -104 9z"/>
<path d="M8301 3693 c-54 -28 -76 -66 -76 -129 0 -37 -4 -54 -13 -54 -14 0
-34 -46 -30 -68 2 -8 39 -28 83 -44 147 -53 227 -80 229 -76 10 11 25 72 20
79 -3 5 9 27 27 48 61 77 32 193 -59 237 -54 26 -139 29 -181 7z m106 -75 c51
-22 73 -48 73 -90 0 -52 -27 -78 -81 -78 -33 0 -47 6 -75 34 -51 51 -43 97 22
131 35 18 27 17 61 3z"/>
<path d="M7968 3415 c-19 -42 -19 -41 87 -90 73 -34 78 -38 57 -48 -58 -27
-83 -137 -48 -205 40 -77 177 -117 255 -75 41 23 83 97 78 136 -2 18 1 27 10
27 14 0 43 60 36 73 -3 5 -25 17 -49 28 -25 10 -122 57 -217 104 -95 47 -177
85 -183 85 -5 0 -17 -16 -26 -35z m317 -206 c45 -40 47 -78 6 -120 -35 -34
-62 -36 -107 -8 -60 37 -72 92 -29 134 35 36 85 34 130 -6z"/>
<path d="M5120 3380 c0 -5 5 -10 10 -10 6 0 10 5 10 10 0 6 -4 10 -10 10 -5 0
-10 -4 -10 -10z"/>
<path d="M3710 3340 l-32 -40 25 -9 c82 -32 137 -36 137 -11 0 12 -79 100 -90
100 -5 0 -23 -18 -40 -40z"/>
<path d="M5220 3220 c0 -5 5 -10 11 -10 5 0 7 5 4 10 -3 6 -8 10 -11 10 -2 0
-4 -4 -4 -10z"/>
<path d="M7940 2978 c-22 -36 -25 -48 -11 -48 4 0 25 -12 46 -26 21 -14 61
-38 89 -53 80 -42 77 -39 64 -67 -11 -23 -9 -28 12 -45 32 -24 47 -24 55 1 8
26 23 25 67 -5 47 -32 54 -31 73 5 22 42 20 48 -31 72 -33 17 -44 27 -41 40 7
24 -18 42 -61 42 -26 1 -65 18 -134 59 -53 31 -99 57 -103 57 -3 0 -14 -15
-25 -32z"/>
<path d="M7844 2800 c-35 -14 -92 -89 -99 -130 -7 -42 10 -120 26 -120 5 0 24
7 40 16 29 14 30 17 23 60 -5 39 -3 49 17 70 22 24 72 33 83 15 3 -5 -21 -46
-54 -92 -33 -46 -60 -89 -60 -96 0 -14 59 -49 99 -58 45 -10 95 11 135 55 41
46 50 74 43 137 -9 80 -101 154 -191 152 -22 0 -50 -4 -62 -9z m162 -206 c-7
-25 -38 -47 -62 -42 -11 2 -6 16 23 57 33 47 38 51 41 32 2 -13 1 -34 -2 -47z"/>
<path d="M7633 2528 c-36 -41 -35 -44 52 -117 71 -60 85 -77 85 -101 0 -18 -8
-34 -21 -44 -22 -15 -22 -42 0 -76 17 -26 63 0 89 50 12 24 22 41 22 36 0 -4
12 7 27 24 l27 32 -40 37 c-22 20 -58 50 -80 68 -21 18 -61 50 -87 73 -27 22
-49 40 -51 40 -1 0 -12 -10 -23 -22z"/>
</g>
</svg>
